<svg width="60" height="60" viewBox="0 0 60 60" fill="none" xmlns="http://www.w3.org/2000/svg">
<g clip-path="url(#clip0_57_74)">
<path d="M55 25V40C55 42.6522 53.9464 45.1957 52.0711 47.0711C50.1957 48.9464 47.6522 50 45 50H15C12.3478 50 9.8043 48.9464 7.92893 47.0711C6.05357 45.1957 5 42.6522 5 40V25H55ZM17.525 35H17.5C17.1717 35.0016 16.8469 35.0679 16.5442 35.1951C16.2416 35.3222 15.9669 35.5078 15.7359 35.7411C15.2694 36.2123 15.0092 36.8495 15.0125 37.5125C15.0141 37.8408 15.0804 38.1656 15.2076 38.4683C15.3347 38.7709 15.5203 39.0456 15.7536 39.2766C15.9869 39.5076 16.2634 39.6904 16.5673 39.8145C16.8713 39.9386 17.1967 40.0016 17.525 40C18.188 40 18.8239 39.7366 19.2928 39.2678C19.7616 38.7989 20.025 38.163 20.025 37.5C20.025 36.837 19.7616 36.2011 19.2928 35.7322C18.8239 35.2634 18.188 35 17.525 35ZM32.5 35H27.5C26.837 35 26.2011 35.2634 25.7322 35.7322C25.2634 36.2011 25 36.837 25 37.5C25 38.163 25.2634 38.7989 25.7322 39.2678C26.2011 39.7366 26.837 40 27.5 40H32.5C33.163 40 33.7989 39.7366 34.2678 39.2678C34.7366 38.7989 35 38.163 35 37.5C35 36.837 34.7366 36.2011 34.2678 35.7322C33.7989 35.2634 33.163 35 32.5 35ZM45 10C47.6522 10 50.1957 11.0536 52.0711 12.9289C53.9464 14.8043 55 17.3478 55 20H5C5 17.3478 6.05357 14.8043 7.92893 12.9289C9.8043 11.0536 12.3478 10 15 10H45Z" fill="#0C3A2D"/>
</g>
<defs>
<clipPath id="clip0_57_74">
<rect width="60" height="60" fill="white"/>
</clipPath>
</defs>
</svg>
