<svg width="60" height="60" viewBox="0 0 60 60" fill="none" xmlns="http://www.w3.org/2000/svg">
<g clip-path="url(#clip0_57_71)">
<path d="M52.5 45C52.5001 46.913 51.7692 48.7538 50.4568 50.1457C49.1444 51.5375 47.3497 52.3753 45.44 52.4875L45 52.5H42.5C40.587 52.5001 38.7462 51.7692 37.3543 50.4568C35.9625 49.1444 35.1247 47.3497 35.0125 45.44L35 45V37.5C34.9999 35.587 35.7308 33.7462 37.0432 32.3543C38.3556 30.9625 40.1503 30.1247 42.06 30.0125L42.5 30H45C45.8775 30 46.72 30.15 47.5 30.4275V30C47.5022 25.4092 45.7004 21.0014 42.483 17.7267C39.2656 14.452 34.8902 12.5727 30.3 12.494C25.7099 12.4153 21.2727 14.1435 17.9449 17.3059C14.617 20.4683 12.6652 24.8118 12.51 29.4L12.5 30V30.425C13.125 30.205 13.79 30.065 14.4775 30.0175L15 30H17.5C19.413 29.9999 21.2538 30.7308 22.6457 32.0432C24.0375 33.3556 24.8753 35.1503 24.9875 37.06L25 37.5V45C25.0001 46.913 24.2692 48.7538 22.9568 50.1457C21.6444 51.5375 19.8497 52.3753 17.94 52.4875L17.5 52.5H15C13.087 52.5001 11.2462 51.7692 9.85435 50.4568C8.46248 49.1444 7.62473 47.3497 7.5125 45.44L7.5 45V30C7.50215 24.0914 9.82839 18.4208 13.9763 14.2129C18.1242 10.0051 23.7608 7.59763 29.6687 7.51064C35.5766 7.42364 41.2817 9.66405 45.5517 13.748C49.8217 17.8319 52.3139 23.4316 52.49 29.3375L52.5 30V45Z" fill="#0C3A2D"/>
</g>
<defs>
<clipPath id="clip0_57_71">
<rect width="60" height="60" fill="white"/>
</clipPath>
</defs>
</svg>
