<svg width="208" height="52" viewBox="0 0 208 52" fill="none" xmlns="http://www.w3.org/2000/svg">
<path d="M34.297 26.749C34.6177 26.749 34.8643 26.897 35.037 27.193C35.2343 27.489 35.333 27.896 35.333 28.414C35.333 29.376 35.0987 30.1407 34.63 30.708C33.446 32.1387 32.2497 33.2487 31.041 34.038C29.8323 34.8027 28.4017 35.185 26.749 35.185C25.1457 35.185 23.7767 34.7533 22.642 33.89C21.532 33.0267 20.4713 31.5467 19.46 29.45C18.646 27.7727 18.0047 26.5393 17.536 25.75C17.0673 24.936 16.5987 24.3563 16.13 24.011C15.686 23.6657 15.131 23.456 14.465 23.382C14.3663 23.9 14.0827 25.528 13.614 28.266C13.4167 29.4993 13.2933 30.2517 13.244 30.523C12.9973 32.0277 12.504 33.187 11.764 34.001C11.024 34.7903 9.90167 35.185 8.397 35.185C6.74433 35.185 5.27667 34.704 3.994 33.742C2.736 32.7553 1.76167 31.3987 1.071 29.672C0.380333 27.9207 0.0350001 25.935 0.0350001 23.715C0.0350001 19.571 0.750333 15.9943 2.181 12.985C3.63633 9.97567 5.659 7.68167 8.249 6.103C10.8637 4.49967 13.873 3.698 17.277 3.698C19.645 3.698 21.6307 4.05567 23.234 4.771C24.8373 5.48633 26.0213 6.473 26.786 7.731C27.5753 8.989 27.97 10.4073 27.97 11.986C27.97 13.3673 27.637 14.724 26.971 16.056C26.3297 17.3633 25.3553 18.5227 24.048 19.534C22.7407 20.5453 21.1497 21.2977 19.275 21.791C20.459 22.1117 21.3717 22.6297 22.013 23.345C22.6543 24.0603 23.2957 25.1087 23.937 26.49C24.6277 27.97 25.306 29.0553 25.972 29.746C26.6627 30.4367 27.452 30.782 28.34 30.782C29.1293 30.782 29.8817 30.523 30.597 30.005C31.3123 29.4623 32.2127 28.5497 33.298 27.267C33.594 26.9217 33.927 26.749 34.297 26.749ZM9.359 23.345C8.52033 23.345 7.94067 23.1477 7.62 22.753C7.324 22.3583 7.176 21.9143 7.176 21.421C7.176 20.829 7.361 20.3603 7.731 20.015C8.12567 19.6697 8.56967 19.497 9.063 19.497H9.988C10.3827 17.0797 10.7527 14.9953 11.098 13.244C11.4187 11.6407 12.4547 10.839 14.206 10.839C15.612 10.839 16.315 11.468 16.315 12.726C16.315 12.9973 16.3027 13.207 16.278 13.355L15.168 19.497C16.5 19.423 17.7087 19.1023 18.794 18.535C19.904 17.9677 20.7797 17.1783 21.421 16.167C22.087 15.1557 22.42 14.0087 22.42 12.726C22.42 11.172 21.8897 9.951 20.829 9.063C19.7683 8.175 18.2143 7.731 16.167 7.731C13.7497 7.731 11.6283 8.33533 9.803 9.544C8.00233 10.728 6.59633 12.504 5.585 14.872C4.57367 17.2153 4.068 20.0767 4.068 23.456C4.068 25.0347 4.22833 26.3913 4.549 27.526C4.86967 28.6607 5.26433 29.5117 5.733 30.079C6.20167 30.6463 6.64567 30.93 7.065 30.93C7.38567 30.93 7.64467 30.7697 7.842 30.449C8.064 30.1283 8.23667 29.6103 8.36 28.895L9.359 23.345ZM48.111 26.749C48.4317 26.749 48.6783 26.897 48.851 27.193C49.0483 27.489 49.147 27.896 49.147 28.414C49.147 29.4007 48.9127 30.1653 48.444 30.708C47.5313 31.818 46.2363 32.8417 44.559 33.779C42.9063 34.7163 41.1303 35.185 39.231 35.185C36.641 35.185 34.6307 34.482 33.2 33.076C31.7693 31.67 31.054 29.746 31.054 27.304C31.054 25.602 31.4117 24.0233 32.127 22.568C32.8423 21.088 33.829 19.9163 35.087 19.053C36.3697 18.1897 37.8127 17.758 39.416 17.758C40.8467 17.758 41.9937 18.1897 42.857 19.053C43.7203 19.8917 44.152 21.0387 44.152 22.494C44.152 24.196 43.5353 25.6637 42.302 26.897C41.0933 28.1057 39.0337 29.0677 36.123 29.783C36.7397 30.9177 37.9113 31.485 39.638 31.485C40.748 31.485 42.006 31.1027 43.412 30.338C44.8427 29.5487 46.076 28.525 47.112 27.267C47.408 26.9217 47.741 26.749 48.111 26.749ZM38.787 21.384C37.8743 21.384 37.0973 21.9143 36.456 22.975C35.8393 24.0357 35.531 25.3183 35.531 26.823V26.897C36.9863 26.5517 38.1333 26.0337 38.972 25.343C39.8107 24.6523 40.23 23.8507 40.23 22.938C40.23 22.4693 40.0943 22.0993 39.823 21.828C39.5763 21.532 39.231 21.384 38.787 21.384ZM50.5047 35.185C48.9754 35.185 47.7544 34.63 46.8417 33.52C45.9291 32.41 45.4727 30.9547 45.4727 29.154C45.4727 27.1807 45.9291 25.3183 46.8417 23.567C47.7544 21.791 48.9631 20.3727 50.4677 19.312C51.9971 18.2267 53.6127 17.684 55.3147 17.684C55.8574 17.684 56.2151 17.795 56.3877 18.017C56.5851 18.2143 56.7454 18.5843 56.8687 19.127C57.3867 19.0283 57.9294 18.979 58.4967 18.979C59.7054 18.979 60.3097 19.4107 60.3097 20.274C60.3097 20.792 60.1247 22.0253 59.7547 23.974C59.1874 26.8107 58.9037 28.784 58.9037 29.894C58.9037 30.264 58.9901 30.56 59.1627 30.782C59.3601 31.004 59.6067 31.115 59.9027 31.115C60.3714 31.115 60.9387 30.819 61.6047 30.227C62.2707 29.6103 63.1711 28.6237 64.3057 27.267C64.6017 26.9217 64.9347 26.749 65.3047 26.749C65.6254 26.749 65.8721 26.897 66.0447 27.193C66.2421 27.489 66.3407 27.896 66.3407 28.414C66.3407 29.4007 66.1064 30.1653 65.6377 30.708C64.6264 31.966 63.5534 33.0267 62.4187 33.89C61.2841 34.7533 60.1864 35.185 59.1257 35.185C58.3117 35.185 57.5594 34.9137 56.8687 34.371C56.2027 33.8037 55.6971 33.039 55.3517 32.077C54.0691 34.149 52.4534 35.185 50.5047 35.185ZM51.8367 31.448C52.3794 31.448 52.8974 31.1273 53.3907 30.486C53.8841 29.8447 54.2417 28.9937 54.4637 27.933L55.8327 21.125C54.7967 21.1497 53.8347 21.5443 52.9467 22.309C52.0834 23.049 51.3927 24.0357 50.8747 25.269C50.3567 26.5023 50.0977 27.8097 50.0977 29.191C50.0977 29.9557 50.2457 30.523 50.5417 30.893C50.8624 31.263 51.2941 31.448 51.8367 31.448ZM70.4006 35.185C67.9833 35.185 66.0963 34.5067 64.7396 33.15C63.4076 31.7687 62.7416 29.9557 62.7416 27.711C62.7416 25.713 63.1363 23.9617 63.9256 22.457C64.715 20.9523 65.7386 19.793 66.9966 18.979C68.2546 18.165 69.5743 17.758 70.9556 17.758C72.3123 17.758 73.3606 18.165 74.1006 18.979C74.8653 19.7683 75.2476 20.792 75.2476 22.05C75.2476 23.086 75.0133 23.9617 74.5446 24.677C74.1006 25.3923 73.5086 25.75 72.7686 25.75C72.3 25.75 71.9176 25.639 71.6216 25.417C71.3503 25.195 71.2146 24.8867 71.2146 24.492C71.2146 24.3193 71.2393 24.122 71.2886 23.9C71.338 23.678 71.375 23.5177 71.3996 23.419C71.523 23.049 71.5846 22.7037 71.5846 22.383C71.5846 22.0623 71.4983 21.8157 71.3256 21.643C71.1776 21.4703 70.9556 21.384 70.6596 21.384C70.0923 21.384 69.562 21.643 69.0686 22.161C68.5753 22.6543 68.1806 23.3327 67.8846 24.196C67.5886 25.0593 67.4406 26.009 67.4406 27.045C67.4406 29.9063 68.6863 31.337 71.1776 31.337C72.189 31.337 73.2743 31.004 74.4336 30.338C75.6176 29.6473 76.777 28.6237 77.9116 27.267C78.2076 26.9217 78.5406 26.749 78.9106 26.749C79.2313 26.749 79.478 26.897 79.6506 27.193C79.848 27.489 79.9466 27.896 79.9466 28.414C79.9466 29.3513 79.7123 30.116 79.2436 30.708C78.0843 32.1387 76.6906 33.2487 75.0626 34.038C73.4593 34.8027 71.9053 35.185 70.4006 35.185ZM93.6384 26.749C93.959 26.749 94.2057 26.897 94.3784 27.193C94.5757 27.489 94.6744 27.896 94.6744 28.414C94.6744 29.4007 94.44 30.1653 93.9714 30.708C92.9107 32.0153 91.7514 33.0883 90.4934 33.927C89.2354 34.7657 87.7924 35.185 86.1644 35.185C81.1324 35.185 78.6164 31.6453 78.6164 24.566C78.6164 23.4807 78.6534 22.383 78.7274 21.273H77.2844C76.5444 21.273 76.0387 21.1373 75.7674 20.866C75.5207 20.5947 75.3974 20.163 75.3974 19.571C75.3974 18.1897 75.9524 17.499 77.0624 17.499H79.1714C79.5907 14.7857 80.232 12.3067 81.0954 10.062C81.9587 7.81733 82.9947 6.029 84.2034 4.697C85.4367 3.365 86.7564 2.699 88.1624 2.699C89.1984 2.699 90.0124 3.15533 90.6044 4.068C91.1964 4.98067 91.4924 6.12767 91.4924 7.509C91.4924 11.3323 89.889 14.6623 86.6824 17.499H90.8264C91.221 17.499 91.5047 17.5853 91.6774 17.758C91.85 17.9307 91.9364 18.2513 91.9364 18.72C91.9364 20.422 90.5427 21.273 87.7554 21.273H83.2414C83.192 22.5063 83.1674 23.4683 83.1674 24.159C83.1674 26.7243 83.4634 28.525 84.0554 29.561C84.672 30.597 85.634 31.115 86.9414 31.115C88.002 31.115 88.9394 30.7943 89.7534 30.153C90.5674 29.5117 91.5294 28.5497 92.6394 27.267C92.9354 26.9217 93.2684 26.749 93.6384 26.749ZM87.1634 6.251C86.7934 6.251 86.374 6.71967 85.9054 7.657C85.4614 8.56967 85.0297 9.85233 84.6104 11.505C84.2157 13.133 83.8827 14.946 83.6114 16.944C85.0667 15.686 86.152 14.28 86.8674 12.726C87.6074 11.1473 87.9774 9.71667 87.9774 8.434C87.9774 6.97867 87.706 6.251 87.1634 6.251ZM96.5087 15.316C95.4727 15.316 94.6957 15.0817 94.1777 14.613C93.6597 14.1197 93.4007 13.4413 93.4007 12.578C93.4007 11.7147 93.7337 10.9993 94.3997 10.432C95.0904 9.84 95.9414 9.544 96.9527 9.544C97.8654 9.544 98.6054 9.766 99.1727 10.21C99.7401 10.654 100.024 11.283 100.024 12.097C100.024 13.0837 99.7031 13.873 99.0617 14.465C98.4204 15.0323 97.5694 15.316 96.5087 15.316ZM96.2127 35.185C94.6094 35.185 93.4377 34.6177 92.6977 33.483C91.9824 32.3483 91.6247 30.8437 91.6247 28.969C91.6247 27.859 91.7604 26.4407 92.0317 24.714C92.3277 22.9627 92.6977 21.3347 93.1417 19.83C93.3637 19.0407 93.6597 18.498 94.0297 18.202C94.3997 17.906 94.9917 17.758 95.8057 17.758C97.0637 17.758 97.6927 18.1773 97.6927 19.016C97.6927 19.6327 97.4584 21.0633 96.9897 23.308C96.3977 26.0213 96.1017 27.859 96.1017 28.821C96.1017 29.561 96.2004 30.1283 96.3977 30.523C96.5951 30.9177 96.9281 31.115 97.3967 31.115C97.8407 31.115 98.3957 30.8067 99.0617 30.19C99.7277 29.5733 100.616 28.599 101.726 27.267C102.022 26.9217 102.355 26.749 102.725 26.749C103.045 26.749 103.292 26.897 103.465 27.193C103.662 27.489 103.761 27.896 103.761 28.414C103.761 29.4007 103.526 30.1653 103.058 30.708C100.616 33.6927 98.3341 35.185 96.2127 35.185ZM119.444 23.752C119.518 23.7273 119.641 23.715 119.814 23.715C120.184 23.715 120.467 23.8383 120.665 24.085C120.862 24.3317 120.961 24.6647 120.961 25.084C120.961 25.8487 120.813 26.453 120.517 26.897C120.221 27.3163 119.777 27.6247 119.185 27.822C118.05 28.192 116.841 28.377 115.559 28.377C114.473 28.377 113.45 28.229 112.488 27.933C111.772 29.0923 110.983 30.2887 110.12 31.522C109.133 32.928 108.282 33.89 107.567 34.408C106.851 34.926 106.037 35.185 105.125 35.185C104.113 35.185 103.312 34.7903 102.72 34.001C102.152 33.2117 101.795 31.966 101.647 30.264C101.351 26.8107 101.203 23.789 101.203 21.199V19.904C101.227 19.09 101.449 18.5227 101.869 18.202C102.288 17.8813 102.917 17.721 103.756 17.721C104.397 17.721 104.866 17.869 105.162 18.165C105.482 18.4363 105.643 18.905 105.643 19.571C105.643 22.4077 105.815 26.0953 106.161 30.634C107.641 28.4387 108.751 26.6873 109.491 25.38C109.121 24.6647 108.936 23.8137 108.936 22.827C108.936 21.9883 109.121 21.1743 109.491 20.385C109.861 19.5957 110.366 18.9543 111.008 18.461C111.649 17.9677 112.377 17.721 113.191 17.721C113.906 17.721 114.486 17.98 114.93 18.498C115.374 18.9913 115.596 19.719 115.596 20.681C115.596 21.791 115.3 23.0613 114.708 24.492C115.645 24.4427 116.891 24.2577 118.445 23.937L119.444 23.752ZM134.252 26.749C134.572 26.749 134.819 26.897 134.992 27.193C135.189 27.489 135.288 27.896 135.288 28.414C135.288 29.4007 135.053 30.1653 134.585 30.708C133.672 31.818 132.377 32.8417 130.7 33.779C129.047 34.7163 127.271 35.185 125.372 35.185C122.782 35.185 120.771 34.482 119.341 33.076C117.91 31.67 117.195 29.746 117.195 27.304C117.195 25.602 117.552 24.0233 118.268 22.568C118.983 21.088 119.97 19.9163 121.228 19.053C122.51 18.1897 123.953 17.758 125.557 17.758C126.987 17.758 128.134 18.1897 128.998 19.053C129.861 19.8917 130.293 21.0387 130.293 22.494C130.293 24.196 129.676 25.6637 128.443 26.897C127.234 28.1057 125.174 29.0677 122.264 29.783C122.88 30.9177 124.052 31.485 125.779 31.485C126.889 31.485 128.147 31.1027 129.553 30.338C130.983 29.5487 132.217 28.525 133.253 27.267C133.549 26.9217 133.882 26.749 134.252 26.749ZM124.928 21.384C124.015 21.384 123.238 21.9143 122.597 22.975C121.98 24.0357 121.672 25.3183 121.672 26.823V26.897C123.127 26.5517 124.274 26.0337 125.113 25.343C125.951 24.6523 126.371 23.8507 126.371 22.938C126.371 22.4693 126.235 22.0993 125.964 21.828C125.717 21.532 125.372 21.384 124.928 21.384ZM142.598 35.296C139.317 35.296 136.69 34.6793 134.717 33.446C132.744 32.188 131.757 30.2763 131.757 27.711C131.757 26.3543 131.991 25.3183 132.46 24.603C132.929 23.8877 133.619 23.53 134.532 23.53C135.198 23.53 135.741 23.7027 136.16 24.048C136.579 24.3933 136.789 24.8373 136.789 25.38C136.789 25.8733 136.752 26.305 136.678 26.675C136.678 26.7737 136.653 26.9463 136.604 27.193C136.579 27.4397 136.567 27.6987 136.567 27.97C136.567 29.08 137.122 29.9063 138.232 30.449C139.367 30.9917 140.945 31.263 142.968 31.263C145.065 31.263 146.705 30.893 147.889 30.153C149.073 29.3883 149.665 28.3277 149.665 26.971C149.665 26.1323 149.394 25.417 148.851 24.825C148.308 24.2083 147.63 23.7027 146.816 23.308C146.002 22.8887 144.855 22.383 143.375 21.791C141.476 21.051 139.922 20.348 138.713 19.682C137.529 19.016 136.505 18.1157 135.642 16.981C134.803 15.8217 134.384 14.391 134.384 12.689C134.384 10.913 134.853 9.33433 135.79 7.953C136.752 6.57167 138.121 5.49866 139.897 4.734C141.698 3.96933 143.807 3.587 146.224 3.587C148.025 3.587 149.677 3.85833 151.182 4.401C152.687 4.919 153.883 5.72067 154.771 6.806C155.684 7.89133 156.14 9.22333 156.14 10.802C156.14 12.356 155.906 13.5277 155.437 14.317C154.968 15.1063 154.278 15.501 153.365 15.501C152.724 15.501 152.181 15.3037 151.737 14.909C151.318 14.5143 151.108 14.0457 151.108 13.503C151.108 13.0343 151.145 12.6027 151.219 12.208C151.293 11.468 151.33 10.9993 151.33 10.802C151.33 9.766 150.824 8.97667 149.813 8.434C148.802 7.89133 147.544 7.62 146.039 7.62C143.918 7.62 142.29 8.01467 141.155 8.804C140.045 9.56867 139.49 10.654 139.49 12.06C139.49 12.9973 139.774 13.799 140.341 14.465C140.933 15.131 141.661 15.686 142.524 16.13C143.387 16.574 144.596 17.1043 146.15 17.721C148.025 18.4857 149.529 19.1763 150.664 19.793C151.799 20.4097 152.761 21.2483 153.55 22.309C154.364 23.3697 154.771 24.677 154.771 26.231C154.771 29.1417 153.661 31.3863 151.441 32.965C149.246 34.519 146.298 35.296 142.598 35.296ZM178.103 26.749C178.424 26.749 178.67 26.897 178.843 27.193C179.04 27.489 179.139 27.896 179.139 28.414C179.139 29.4007 178.905 30.1653 178.436 30.708C177.301 32.0153 176.13 33.0883 174.921 33.927C173.737 34.7657 172.38 35.185 170.851 35.185C169.593 35.185 168.643 34.8273 168.002 34.112C167.361 33.372 167.04 32.3113 167.04 30.93C167.04 30.2393 167.213 29.006 167.558 27.23C167.879 25.676 168.039 24.603 168.039 24.011C168.039 23.6163 167.903 23.419 167.632 23.419C167.311 23.419 166.855 23.8383 166.263 24.677C165.671 25.491 165.079 26.5763 164.487 27.933C163.895 29.2897 163.414 30.7203 163.044 32.225C162.575 34.1983 161.416 35.185 159.566 35.185C158.826 35.185 158.333 34.926 158.086 34.408C157.864 33.8653 157.753 32.9033 157.753 31.522C157.753 30.7327 157.765 30.1037 157.79 29.635L157.827 26.675C157.827 22.8763 158.209 18.9173 158.974 14.798C159.763 10.6787 160.91 7.22533 162.415 4.438C163.944 1.626 165.77 0.219998 167.891 0.219998C169.026 0.219998 169.938 0.713331 170.629 1.7C171.344 2.662 171.702 3.92 171.702 5.474C171.702 7.96533 170.974 10.5553 169.519 13.244C168.064 15.908 165.696 19.0283 162.415 22.605C162.341 23.8877 162.304 25.2073 162.304 26.564C163.118 24.4673 164.018 22.7653 165.005 21.458C166.016 20.126 167.003 19.1763 167.965 18.609C168.952 18.0417 169.852 17.758 170.666 17.758C172.269 17.758 173.071 18.5597 173.071 20.163C173.071 21.125 172.8 22.864 172.257 25.38C171.788 27.526 171.554 28.9443 171.554 29.635C171.554 30.6217 171.912 31.115 172.627 31.115C173.12 31.115 173.7 30.819 174.366 30.227C175.057 29.6103 175.969 28.6237 177.104 27.267C177.4 26.9217 177.733 26.749 178.103 26.749ZM167.114 3.883C166.67 3.883 166.177 4.52433 165.634 5.807C165.091 7.065 164.561 8.77933 164.043 10.95C163.55 13.096 163.143 15.4393 162.822 17.98C164.351 16.1793 165.609 14.2183 166.596 12.097C167.607 9.97567 168.113 8.05167 168.113 6.325C168.113 5.53567 168.027 4.93133 167.854 4.512C167.681 4.09267 167.435 3.883 167.114 3.883ZM195.01 23.641C195.331 23.641 195.578 23.8013 195.75 24.122C195.923 24.4427 196.009 24.8497 196.009 25.343C196.009 26.527 195.652 27.23 194.936 27.452C193.456 27.97 191.828 28.266 190.052 28.34C189.584 30.412 188.659 32.077 187.277 33.335C185.896 34.5683 184.33 35.185 182.578 35.185C181.098 35.185 179.828 34.8273 178.767 34.112C177.731 33.3967 176.942 32.447 176.399 31.263C175.857 30.079 175.585 28.7963 175.585 27.415C175.585 25.5403 175.943 23.8753 176.658 22.42C177.374 20.94 178.36 19.793 179.618 18.979C180.876 18.1403 182.27 17.721 183.799 17.721C185.674 17.721 187.179 18.3747 188.313 19.682C189.473 20.9647 190.151 22.5557 190.348 24.455C191.508 24.381 192.889 24.1343 194.492 23.715C194.69 23.6657 194.862 23.641 195.01 23.641ZM182.874 31.263C183.664 31.263 184.342 30.9423 184.909 30.301C185.501 29.6597 185.896 28.7347 186.093 27.526C185.329 27.008 184.737 26.3297 184.317 25.491C183.923 24.6523 183.725 23.7643 183.725 22.827C183.725 22.4323 183.762 22.0377 183.836 21.643H183.651C182.665 21.643 181.838 22.124 181.172 23.086C180.531 24.0233 180.21 25.3553 180.21 27.082C180.21 28.4387 180.469 29.4747 180.987 30.19C181.53 30.9053 182.159 31.263 182.874 31.263ZM207.486 23.715C207.486 25.6637 207.029 27.5137 206.117 29.265C205.229 30.9917 204.032 32.3977 202.528 33.483C201.048 34.5683 199.457 35.1357 197.755 35.185C197.434 39.9457 196.706 43.917 195.572 47.099C194.437 50.3057 192.772 51.909 190.577 51.909C189.245 51.909 188.258 51.428 187.617 50.466C186.975 49.504 186.655 48.172 186.655 46.47C186.655 44.0527 187.21 41.2283 188.32 37.997C189.43 34.7903 191.144 31.2507 193.463 27.378C193.463 23.7767 193.438 21.273 193.389 19.867C193.364 19.1517 193.648 18.5843 194.24 18.165C194.832 17.7457 195.572 17.536 196.46 17.536C196.978 17.536 197.348 17.647 197.57 17.869C197.816 18.0663 197.952 18.4733 197.977 19.09C197.977 19.7067 197.989 20.163 198.014 20.459C198.803 19.4723 199.58 18.7693 200.345 18.35C201.109 17.906 201.923 17.684 202.787 17.684C204.168 17.684 205.29 18.239 206.154 19.349C207.042 20.459 207.486 21.9143 207.486 23.715ZM197.94 31.633C198.828 31.4357 199.642 30.9547 200.382 30.19C201.146 29.4007 201.751 28.4387 202.195 27.304C202.639 26.1447 202.861 24.936 202.861 23.678C202.861 22.938 202.713 22.383 202.417 22.013C202.121 21.6183 201.726 21.421 201.233 21.421C200.345 21.421 199.272 22.3583 198.014 24.233C197.989 25.3183 197.977 26.9093 197.977 29.006C197.977 30.1407 197.964 31.0163 197.94 31.633ZM190.873 48.283C191.539 48.283 192.094 46.8277 192.538 43.917C192.982 41.031 193.265 37.4297 193.389 33.113C192.328 35.5797 191.489 37.9353 190.873 40.18C190.256 42.4247 189.948 44.3117 189.948 45.841C189.948 46.6303 190.046 47.2347 190.244 47.654C190.416 48.0733 190.626 48.283 190.873 48.283Z" fill="#FFBA00"/>
</svg>
