<svg width="50" height="50" viewBox="0 0 50 50" fill="none" xmlns="http://www.w3.org/2000/svg">
<path d="M24.995 0L25.29 0.0174999L25.4375 0.0375003L25.59 0.0700003L25.8675 0.155C26.0591 0.225658 26.2414 0.319702 26.41 0.435L26.67 0.64L27.3075 1.185C32.3508 5.37391 38.7246 7.62326 45.28 7.5275L46.135 7.5025C46.694 7.477 47.2453 7.63977 47.7009 7.96475C48.1564 8.28973 48.4897 8.75814 48.6475 9.295C49.876 13.4739 50.2519 17.8572 49.7529 22.1843C49.2539 26.5114 47.8902 30.694 45.7428 34.4837C43.5954 38.2733 40.7082 41.5927 37.2526 44.2444C33.7971 46.8962 29.8437 48.8263 25.6275 49.92C25.216 50.0267 24.784 50.0267 24.3725 49.92C20.156 48.8266 16.2024 46.8967 12.7466 44.245C9.29072 41.5934 6.40318 38.2741 4.25554 34.4844C2.1079 30.6947 0.74398 26.512 0.244841 22.1848C-0.254299 17.8575 0.121525 13.4741 1.34998 9.295C1.50775 8.75814 1.84108 8.28973 2.2966 7.96475C2.75212 7.63977 3.3035 7.477 3.86248 7.5025C10.7061 7.81533 17.4201 5.56247 22.69 1.185L23.3475 0.6225L23.5875 0.435C23.7561 0.319702 23.9383 0.225658 24.13 0.155L24.41 0.0700003C24.508 0.0463344 24.6073 0.0288 24.7075 0.0174999L24.995 0ZM25 17.5C23.7385 17.4996 22.5236 17.976 21.5986 18.8337C20.6737 19.6915 20.1071 20.8671 20.0125 22.125L20 22.5L20.0125 22.875C20.0741 23.6865 20.3329 24.4707 20.7664 25.1595C21.1999 25.8483 21.795 26.4209 22.5 26.8275V31.25L22.5175 31.5425C22.5927 32.1752 22.9068 32.7554 23.3954 33.1643C23.884 33.5733 24.5104 33.7803 25.1465 33.7429C25.7826 33.7056 26.3804 33.4268 26.8179 32.9634C27.2553 32.5001 27.4993 31.8872 27.5 31.25L27.5025 26.83C28.4558 26.2795 29.2008 25.4298 29.6219 24.4127C30.0431 23.3956 30.1167 22.2679 29.8316 21.2047C29.5464 20.1414 28.9183 19.202 28.0447 18.5322C27.1711 17.8623 26.1008 17.4995 25 17.5Z" fill="#0C3A2D"/>
</svg>
